<svg xmlns="http://www.w3.org/2000/svg" width="56" height="56" fill="none"><path fill="#fff" d="M48.91 7.282h-.665A4.783 4.783 0 0 0 47.011.944a4.784 4.784 0 0 0-6.83 1.182L36.73 7.283H7.09A4.423 4.423 0 0 0 2.672 11.7v28.248a4.423 4.423 0 0 0 4.418 4.418h17.163l-1.297 5.447h-2.799a3.312 3.312 0 0 0-3.308 3.308v.69h-3.45a1.094 1.094 0 0 0 0 2.188H42.6a1.094 1.094 0 0 0 0-2.188h-3.45v-.69a3.312 3.312 0 0 0-3.308-3.308h-2.799l-1.296-5.447H48.91a4.423 4.423 0 0 0 4.418-4.418V11.701a4.423 4.423 0 0 0-4.418-4.419ZM33.239 26.51c-1.71 1.197-4.914-.43-7.973 1.203-.747-3.878-.276-7.525 3.61-8.33a6.966 6.966 0 0 1 1.502-.143l3.957 2.936c.574 1.67.358 3.316-1.096 4.334Zm1.102-11.723 3.096 2.297-2.381 2.903-2.803-2.08 2.088-3.12Zm7.657-11.444a2.598 2.598 0 0 1 3.71-.642 2.598 2.598 0 0 1 .461 3.736l-7.343 8.953-3.267-2.423 6.44-9.624Zm-5.034 49.779v.69H19.037v-.69c0-.618.502-1.12 1.12-1.12h15.686c.618 0 1.12.502 1.12 1.12Zm-6.168-3.308h-5.592l1.297-5.447h2.998l1.297 5.447Zm20.345-9.865c0 1.23-1.001 2.231-2.231 2.231H7.09c-1.23 0-2.23-1-2.23-2.23v-5.123h3.125a1.094 1.094 0 0 0 0-2.187H4.859V11.7c0-1.23 1.001-2.23 2.231-2.23h28.176l-5.073 7.581c-2.143.02-4.283.766-5.684 2.401-1.906 2.226-2.24 5.722-.995 10.392a1.095 1.095 0 0 0 1.812.51c2.828-2.703 6.35.245 9.505-2.308 1.925-1.559 2.38-4.037 1.655-6.354L46.51 9.47h2.399c1.23 0 2.23 1 2.23 2.23v20.94H16.736a1.094 1.094 0 0 0 0 2.187H51.14v5.122Z"/><path fill="#fff" d="M12.149 32.66a1.093 1.093 0 1 0 .427 2.146 1.093 1.093 0 0 0-.427-2.145Z"/></svg>