<svg xmlns="http://www.w3.org/2000/svg" width="60" height="60" fill="none"><path fill="#fff" d="M54.432 4.688H5.51A3.668 3.668 0 0 0 1.846 8.35v42.86a3.668 3.668 0 0 0 3.663 3.663h48.923a3.668 3.668 0 0 0 3.664-3.663V39.274a1.099 1.099 0 1 0-2.198 0V51.21c0 .808-.657 1.466-1.466 1.466H5.51a1.468 1.468 0 0 1-1.466-1.466V16.527h51.855v10.222a1.098 1.098 0 1 0 2.198 0V8.351a3.668 3.668 0 0 0-3.664-3.664ZM4.043 14.33V8.35c0-.808.658-1.466 1.466-1.466h48.923c.809 0 1.466.658 1.466 1.466v5.979H4.043Z"/><path fill="#fff" d="M10.89 11.706H9.94a1.099 1.099 0 0 1 0-2.197h.951a1.099 1.099 0 1 1 0 2.197ZM16.31 11.706h-.951a1.099 1.099 0 0 1 0-2.197h.952a1.098 1.098 0 1 1 0 2.197ZM21.73 11.706h-.952a1.099 1.099 0 0 1 0-2.197h.953a1.098 1.098 0 1 1 0 2.197ZM45.536 11.706H27.444a1.099 1.099 0 0 1 0-2.197h18.092a1.098 1.098 0 1 1 0 2.197ZM50.003 11.706a1.091 1.091 0 0 1-.42-.084 1.137 1.137 0 0 1-.357-.238 1.148 1.148 0 0 1-.238-.357 1.097 1.097 0 0 1 1.435-1.434 1.121 1.121 0 0 1 .357.237 1.106 1.106 0 0 1 .3.562 1.11 1.11 0 0 1 0 .43 1.097 1.097 0 0 1-.863.862 1.078 1.078 0 0 1-.214.022ZM56.997 34.272a1.097 1.097 0 0 1-.776-.322 1.069 1.069 0 0 1-.3-.562 1.075 1.075 0 0 1 .163-.824 1.108 1.108 0 0 1 .492-.404 1.074 1.074 0 0 1 .635-.063 1.127 1.127 0 0 1 .395.163 1.105 1.105 0 0 1 .468 1.128 1.083 1.083 0 0 1-.164.395 1.042 1.042 0 0 1-.303.304 1.112 1.112 0 0 1-.61.185ZM19.142 47.757a3.519 3.519 0 0 1-2.505-1.038L8.439 38.52A3.52 3.52 0 0 1 7.4 36.016a3.52 3.52 0 0 1 1.038-2.505l8.198-8.197a3.519 3.519 0 0 1 2.505-1.038c.946 0 1.835.369 2.505 1.038a3.518 3.518 0 0 1 1.037 2.505 3.52 3.52 0 0 1-1.038 2.504l-5.693 5.693 5.694 5.693a3.52 3.52 0 0 1 1.037 2.505 3.52 3.52 0 0 1-1.038 2.505 3.52 3.52 0 0 1-2.504 1.038Zm0-21.284c-.36 0-.697.14-.951.395l-8.199 8.197a1.337 1.337 0 0 0-.394.951c0 .36.14.698.394.951l8.199 8.198c.254.254.59.394.95.394s.698-.14.952-.394.393-.592.393-.95c0-.36-.14-.698-.393-.952l-6.471-6.47a1.1 1.1 0 0 1 0-1.554l6.47-6.47c.255-.253.394-.591.394-.95 0-.36-.14-.697-.393-.951a1.337 1.337 0 0 0-.951-.395ZM40.8 47.757a3.517 3.517 0 0 1-2.504-1.038 3.519 3.519 0 0 1-1.038-2.505 3.52 3.52 0 0 1 1.038-2.505l5.693-5.693-5.693-5.693a3.52 3.52 0 0 1-1.038-2.505c0-.946.368-1.836 1.038-2.504a3.518 3.518 0 0 1 2.504-1.038 3.52 3.52 0 0 1 2.505 1.038l8.198 8.197a3.52 3.52 0 0 1 1.037 2.505 3.52 3.52 0 0 1-1.037 2.505l-8.198 8.198a3.52 3.52 0 0 1-2.505 1.038Zm0-21.284c-.36 0-.697.14-.951.395a1.336 1.336 0 0 0-.394.95c0 .36.14.697.394.951l6.47 6.47a1.1 1.1 0 0 1 0 1.554l-6.47 6.47a1.336 1.336 0 0 0-.394.951c0 .36.14.697.394.951s.592.394.95.394c.36 0 .698-.14.952-.394l8.198-8.198c.254-.253.394-.591.394-.951s-.14-.697-.394-.951l-8.197-8.197a1.339 1.339 0 0 0-.952-.395ZM28.437 47.295a3.546 3.546 0 0 1-3.456-4.33l3.525-15.47a3.546 3.546 0 0 1 4.24-2.668c.923.21 1.709.767 2.213 1.568.503.8.665 1.75.455 2.672L31.889 44.54a3.524 3.524 0 0 1-3.452 2.756Zm3.523-20.36c-.614 0-1.17.424-1.311 1.047l-3.525 15.471a1.347 1.347 0 0 0 1.313 1.645c.62 0 1.171-.44 1.31-1.047l3.524-15.472c.08-.35.019-.71-.172-1.014a1.337 1.337 0 0 0-1.14-.63Z"/></svg>