<svg xmlns="http://www.w3.org/2000/svg" width="56" height="56" fill="none"><g fill="#fff" clip-path="url(#a)"><path d="M45.282 16.27c.604 0 1.094-.49 1.094-1.094V3.28A3.285 3.285 0 0 0 43.095 0H3.282A3.285 3.285 0 0 0 .001 3.281V52.72A3.285 3.285 0 0 0 3.282 56h39.813a3.285 3.285 0 0 0 3.28-3.281V44.66a1.094 1.094 0 0 0-2.187 0v8.058c0 .603-.49 1.093-1.093 1.093H3.282c-.603 0-1.094-.49-1.094-1.093V3.28c0-.603.491-1.094 1.094-1.094h39.813c.603 0 1.093.491 1.093 1.094v11.895c0 .604.49 1.094 1.094 1.094Z"/><path d="M23.188 5.906c-5.548 0-10.062 4.514-10.062 10.063 0 2.878 1.215 5.478 3.159 7.313.036.04.075.076.117.11a10.023 10.023 0 0 0 6.786 2.64c2.613 0 4.995-1.002 6.786-2.64a1.09 1.09 0 0 0 .118-.11 10.035 10.035 0 0 0 3.159-7.313c0-5.549-4.514-10.063-10.063-10.063Zm0 17.938a7.833 7.833 0 0 1-4.757-1.605 5.434 5.434 0 0 1 4.757-2.77 5.434 5.434 0 0 1 4.757 2.77 7.833 7.833 0 0 1-4.757 1.605Zm-1.75-8.313v-.71c0-.966.785-1.75 1.75-1.75s1.75.784 1.75 1.75v.71c0 .965-.785 1.75-1.75 1.75s-1.75-.785-1.75-1.75Zm8.087 5.106a7.587 7.587 0 0 0-3.222-2.701c.515-.666.823-1.5.823-2.405v-.71a3.942 3.942 0 0 0-3.938-3.938 3.942 3.942 0 0 0-3.937 3.937v.711c0 .905.307 1.74.823 2.405a7.587 7.587 0 0 0-3.223 2.701 7.832 7.832 0 0 1-1.538-4.668c0-4.342 3.533-7.875 7.875-7.875 4.343 0 7.875 3.533 7.875 7.875a7.832 7.832 0 0 1-1.538 4.668ZM29.095 47.906h-5.907a1.094 1.094 0 0 0 0 2.188h5.907a1.094 1.094 0 0 0 0-2.188ZM29.095 41.781H13.563a1.094 1.094 0 0 0 0 2.188h15.531a1.094 1.094 0 0 0 0-2.188ZM29.095 35.656H13.563a1.094 1.094 0 0 0 0 2.188h15.531a1.094 1.094 0 0 0 0-2.188ZM9.665 29.852a1.102 1.102 0 0 0-.774-.32c-.288 0-.57.116-.774.32-.203.203-.32.485-.32.773 0 .288.117.57.32.773.205.204.486.32.774.32.289 0 .57-.116.774-.32.203-.203.32-.485.32-.773 0-.288-.116-.57-.32-.773ZM9.665 35.977a1.104 1.104 0 0 0-.774-.32c-.288 0-.569.116-.774.32-.203.203-.32.485-.32.773 0 .288.117.57.32.773.205.204.486.32.774.32.289 0 .57-.116.774-.32.203-.203.32-.485.32-.773 0-.288-.116-.57-.32-.773ZM9.665 42.102a1.104 1.104 0 0 0-.774-.32c-.288 0-.569.116-.774.32-.203.203-.32.485-.32.773 0 .288.117.57.32.773.204.204.486.32.774.32.289 0 .57-.116.774-.32.203-.203.32-.485.32-.773 0-.288-.116-.57-.32-.773ZM29.095 29.531H13.563a1.094 1.094 0 0 0 0 2.188h15.531a1.094 1.094 0 0 0 0-2.188ZM53.703 14.254a4.564 4.564 0 0 0-3.486-.46 4.563 4.563 0 0 0-2.789 2.141l-13.764 23.84c-.075.13-.123.276-.14.425l-.968 8.679a1.094 1.094 0 0 0 1.735 1.002l7.031-5.178c.122-.09.223-.204.299-.334l13.764-23.84a4.599 4.599 0 0 0-1.682-6.275ZM35.007 46.637l.506-4.532 3.165 1.828-3.671 2.704Zm5.266-4.31-4.167-2.406 11.045-19.13 4.167 2.406-11.045 19.13ZM53.49 19.436l-1.078 1.867-4.168-2.406 1.078-1.867a2.39 2.39 0 0 1 1.462-1.121 2.39 2.39 0 0 1 1.825.24c.557.322.955.84 1.122 1.461.166.621.08 1.27-.24 1.826Z"/></g><defs><clipPath id="a"><path fill="#fff" d="M0 0h56v56H0z"/></clipPath></defs></svg>